<svg width="200" height="200" viewBox="0 0 200 200" fill="none" xmlns="http://www.w3.org/2000/svg">
  <rect width="200" height="200" rx="20" fill="url(#grad4)"/>
  <defs>
    <linearGradient id="grad4" x1="0%" y1="0%" x2="100%" y2="100%">
      <stop offset="0%" style="stop-color:#27ae60;stop-opacity:1" />
      <stop offset="100%" style="stop-color:#229954;stop-opacity:1" />
    </linearGradient>
  </defs>
  <circle cx="70" cy="70" r="20" fill="white" opacity="0.9"/>
  <circle cx="130" cy="70" r="20" fill="white" opacity="0.9"/>
  <path d="M70 70 Q100 50 130 70" stroke="#27ae60" stroke-width="3" fill="none"/>
  <circle cx="70" cy="70" r="8" fill="#27ae60"/>
  <circle cx="130" cy="70" r="8" fill="#27ae60"/>
  <rect x="50" y="110" width="100" height="40" rx="8" fill="white" opacity="0.1"/>
  <rect x="60" y="120" width="80" height="4" rx="2" fill="white" opacity="0.7"/>
  <rect x="60" y="130" width="60" height="4" rx="2" fill="white" opacity="0.5"/>
  <rect x="60" y="140" width="70" height="4" rx="2" fill="white" opacity="0.6"/>
  <path d="M40 170 L60 160 L80 175 L100 165 L120 170 L140 155 L160 165" stroke="white" stroke-width="2" fill="none" opacity="0.8"/>
</svg>
