<svg width="300" height="200" viewBox="0 0 300 200" fill="none" xmlns="http://www.w3.org/2000/svg">
  <rect width="300" height="200" rx="20" fill="url(#grad5)"/>
  <defs>
    <linearGradient id="grad5" x1="0%" y1="0%" x2="100%" y2="100%">
      <stop offset="0%" style="stop-color:#3772ff;stop-opacity:0.1" />
      <stop offset="100%" style="stop-color:#6c2bd7;stop-opacity:0.1" />
    </linearGradient>
  </defs>
  <!-- Security Shield -->
  <path d="M80 50 L80 40 Q80 35 85 35 L95 35 Q100 35 100 40 L100 50 Q100 80 90 90 Q80 80 80 50 Z" fill="#3772ff" opacity="0.8"/>
  <circle cx="90" cy="60" r="8" fill="white"/>
  <rect x="86" y="56" width="8" height="8" rx="1" fill="#3772ff"/>
  
  <!-- Dollar Signs -->
  <text x="150" y="70" text-anchor="middle" fill="#27ae60" font-family="Arial, sans-serif" font-size="24" font-weight="bold" opacity="0.8">$</text>
  
  <!-- Chart Lines -->
  <path d="M200 60 L220 50 L240 65 L260 45 L280 55" stroke="#3772ff" stroke-width="3" fill="none" opacity="0.6"/>
  <circle cx="200" cy="60" r="3" fill="#3772ff"/>
  <circle cx="240" cy="65" r="3" fill="#3772ff"/>
  <circle cx="280" cy="55" r="3" fill="#3772ff"/>
  
  <!-- Feature boxes -->
  <rect x="40" y="110" width="60" height="40" rx="8" fill="white" opacity="0.1"/>
  <rect x="120" y="110" width="60" height="40" rx="8" fill="white" opacity="0.1"/>
  <rect x="200" y="110" width="60" height="40" rx="8" fill="white" opacity="0.1"/>
  
  <!-- Icons in boxes -->
  <circle cx="70" cy="130" r="8" fill="#3772ff" opacity="0.6"/>
  <circle cx="150" cy="130" r="8" fill="#27ae60" opacity="0.6"/>
  <circle cx="230" cy="130" r="8" fill="#e74c3c" opacity="0.6"/>
</svg>
