<?xml version="1.0" encoding="UTF-8"?>
<svg version="1.1" xmlns="http://www.w3.org/2000/svg" width="500" height="351">
<path d="M0 0 C2.625 0.375 2.625 0.375 5 1 C4.4543227 7.23016489 3.9023517 13.45974887 3.34594727 19.68896484 C3.1573125 21.80927814 2.97013281 23.92972141 2.78442383 26.05029297 C2.51763884 29.09377612 2.24566871 32.13675747 1.97265625 35.1796875 C1.8491555 36.60787308 1.8491555 36.60787308 1.72315979 38.06491089 C1.64315231 38.94567291 1.56314484 39.82643494 1.48071289 40.73388672 C1.41187393 41.51110077 1.34303497 42.28831482 1.27210999 43.08908081 C1 45 1 45 0 47 C-3.36179774 45.55922954 -5.59156268 43.75249979 -8 41 C-8 40.34 -8 39.68 -8 39 C-8.66 39 -9.32 39 -10 39 C-10.26039063 39.56332031 -10.52078125 40.12664062 -10.7890625 40.70703125 C-12.12237817 43.23172898 -13.67013979 45.3963693 -15.375 47.6875 C-18.38179195 51.76892157 -21.33315296 55.88070371 -24.2409668 60.03320312 C-34.04973201 74.03620332 -44.37218255 87.61062369 -55 101 C-57.4375 100.1875 -57.4375 100.1875 -60 99 C-60.33 98.01 -60.66 97.02 -61 96 C-62.30935312 95.28738746 -63.64829794 94.62858872 -65 94 C-66.60732981 92.8237752 -68.19024962 91.6136253 -69.75 90.375 C-70.54921875 89.74335938 -71.3484375 89.11171875 -72.171875 88.4609375 C-72.77515625 87.97882813 -73.3784375 87.49671875 -74 87 C-77.30081464 89.50952346 -79.97419631 91.9664552 -82.5 95.25 C-85.02955404 98.49610071 -87.57808607 101.7188913 -90.1953125 104.89453125 C-97.89835872 114.24158238 -97.89835872 114.24158238 -104.80859375 124.1796875 C-107.30715875 127.99716713 -110.19639794 131.29206485 -113.625 134.3125 C-116.93494031 138.05795877 -119 142.91656312 -119 148 C-117.68 148.33 -116.36 148.66 -115 149 C-114.505 152.465 -114.505 152.465 -114 156 C-112.68 155.67 -111.36 155.34 -110 155 C-109.67 153.35 -109.34 151.7 -109 150 C-108.67 150 -108.34 150 -108 150 C-107.67 144.06 -107.34 138.12 -107 132 C-105.02 131.67 -103.04 131.34 -101 131 C-101 129.35 -101 127.7 -101 126 C-99.68 126 -98.36 126 -97 126 C-97 127.98 -97 129.96 -97 132 C-95.5459375 131.9690625 -95.5459375 131.9690625 -94.0625 131.9375 C-91 132 -91 132 -90 133 C-89.76518307 135.18292774 -89.58636677 137.37203174 -89.4375 139.5625 C-89.35371094 140.76003906 -89.26992187 141.95757812 -89.18359375 143.19140625 C-89.12300781 144.11824219 -89.06242187 145.04507813 -89 146 C-88.67 146 -88.34 146 -88 146 C-87.67 136.76 -87.34 127.52 -87 118 C-84.69 118 -82.38 118 -80 118 C-80 113.71 -80 109.42 -80 105 C-78.68 105 -77.36 105 -76 105 C-74.73762269 107.52475462 -74.90143596 109.31200466 -74.9375 112.125 C-74.94652344 113.03507812 -74.95554687 113.94515625 -74.96484375 114.8828125 C-74.97644531 115.58148438 -74.98804688 116.28015625 -75 117 C-73.02 117.33 -71.04 117.66 -69 118 C-68.83254454 122.94772024 -68.67196882 127.8955972 -68.51782227 132.84375 C-68.46438576 134.5277307 -68.40905512 136.21165239 -68.35180664 137.89550781 C-68.26994148 140.31302158 -68.19484528 142.73066432 -68.12109375 145.1484375 C-68.09405869 145.9036972 -68.06702362 146.65895691 -68.03916931 147.43710327 C-67.88612829 152.77225659 -67.88612829 152.77225659 -69 155 C-70.98 155 -72.96 155 -75 155 C-75 159.95 -75 164.9 -75 170 C-76.32 170.33 -77.64 170.66 -79 171 C-80.75 169.75 -80.75 169.75 -82 168 C-82 167.01 -82 166.02 -82 165 C-81.34 165 -80.68 165 -80 165 C-80.495 160.545 -80.495 160.545 -81 156 C-82.32 155.67 -83.64 155.34 -85 155 C-85.66 154.67 -86.32 154.34 -87 154 C-87.33 155.65 -87.66 157.3 -88 159 C-88.33 159 -88.66 159 -89 159 C-89.33 162.3 -89.66 165.6 -90 169 C-92.31 169 -94.62 169 -97 169 C-96.67 169.99 -96.34 170.98 -96 172 C-95.34 172.33 -94.68 172.66 -94 173 C-94.25 176.375 -94.25 176.375 -95 180 C-96.9375 181.5 -96.9375 181.5 -99 182 C-99.66 181.67 -100.32 181.34 -101 181 C-101.4140625 178.71484375 -101.4140625 178.71484375 -101.625 175.9375 C-101.69976562 175.01839844 -101.77453125 174.09929687 -101.8515625 173.15234375 C-101.90054688 172.44207031 -101.94953125 171.73179687 -102 171 C-103.98 171 -105.96 171 -108 171 C-108.3403125 172.2065625 -108.3403125 172.2065625 -108.6875 173.4375 C-109.120625 174.283125 -109.55375 175.12875 -110 176 C-112.625 176.8125 -112.625 176.8125 -115 177 C-115.04241723 179.33294775 -115.04092937 181.66702567 -115 184 C-114.00508747 185.21651851 -114.00508747 185.21651851 -112.04985046 185.11352539 C-110.75999992 185.10567017 -110.75999992 185.10567017 -109.4440918 185.09765625 C-108.46335693 185.09440338 -107.48262207 185.09115051 -106.47216797 185.08779907 C-105.39209473 185.07945038 -104.31202148 185.07110168 -103.19921875 185.0625 C-100.87784885 185.05372966 -98.55647837 185.04510994 -96.23510742 185.03662109 C-95.00472748 185.03039734 -93.77434753 185.02417358 -92.50668335 185.01776123 C-59.70817344 184.86523074 -26.93956067 185.13371885 5.8125 187 C6.54683258 187.04179382 7.28116516 187.08358765 8.03775024 187.12664795 C14.736657 187.5164351 21.35898106 187.98779421 28 189 C28 189.33 28 189.66 28 190 C-31.73 190 -91.46 190 -153 190 C-152.505 189.01 -152.505 189.01 -152 188 C-150.1015625 187.60522461 -150.1015625 187.60522461 -147.625 187.40234375 C-146.26955078 187.28342773 -146.26955078 187.28342773 -144.88671875 187.16210938 C-143.45779297 187.05092773 -143.45779297 187.05092773 -142 186.9375 C-140.14577768 186.78060427 -138.29161031 186.62305768 -136.4375 186.46484375 C-135.53257812 186.38991699 -134.62765625 186.31499023 -133.6953125 186.23779297 C-129.78830355 185.89309852 -125.8960547 185.4510801 -122 185 C-122 181.37 -122 177.74 -122 174 C-124.31 174 -126.62 174 -129 174 C-129 168.72 -129 163.44 -129 158 C-132.08375495 159.02791832 -132.87790925 159.70106836 -135 162 C-135.515625 162.433125 -136.03125 162.86625 -136.5625 163.3125 C-138.53289926 165.6255774 -139.08358008 168.12855092 -140 171 C-142 173 -142 173 -145.125 173.125 C-146.07375 173.08375 -147.0225 173.0425 -148 173 C-148.25 170.75 -148.25 170.75 -148 168 C-146.25 166 -146.25 166 -144 164 C-139.41343257 158.78844975 -136.17462147 152.71050356 -132.68554688 146.74414062 C-129.58763095 141.50120697 -126.28439463 136.5012319 -122.7565918 131.53881836 C-119.74603036 127.18762608 -117.03818538 122.65805207 -114.3125 118.125 C-113.70728516 117.1254126 -113.10207031 116.1258252 -112.47851562 115.09594727 C-109.60886804 110.35088732 -106.75575041 105.59621051 -103.91796875 100.83203125 C-98.51783373 91.76694243 -93.04322554 82.75224095 -87.4375 73.8125 C-86.84130859 72.84884521 -86.24511719 71.88519043 -85.63085938 70.89233398 C-85.07076172 70.00618408 -84.51066406 69.12003418 -83.93359375 68.20703125 C-83.43915771 67.4178833 -82.94472168 66.62873535 -82.43530273 65.81567383 C-81 64 -81 64 -78 63 C-75.44608011 64.48014637 -73.09218043 65.99324022 -70.6875 67.6875 C-70.03587891 68.13544922 -69.38425781 68.58339844 -68.71289062 69.04492188 C-67.42361711 69.9315394 -66.13693649 70.82194057 -64.85302734 71.71630859 C-62.25872397 73.51352165 -59.63154236 75.25787816 -57 77 C-51.91130134 70.28881771 -46.90626817 63.53018397 -42.03393555 56.66040039 C-39.55016635 53.16087079 -37.04304652 49.68017981 -34.51171875 46.21484375 C-33.91907227 45.40160645 -33.32642578 44.58836914 -32.71582031 43.75048828 C-31.54764401 42.14897695 -30.37650761 40.5496198 -29.20214844 38.95263672 C-28.40405762 37.85653076 -28.40405762 37.85653076 -27.58984375 36.73828125 C-27.11409912 36.08899658 -26.63835449 35.43971191 -26.14819336 34.77075195 C-24.82448623 32.89147081 -24.82448623 32.89147081 -24 30 C-25.918125 30.0309375 -25.918125 30.0309375 -27.875 30.0625 C-31.75 30.125 -31.75 30.125 -34 29 C-32.45710456 24.78145044 -29.33753179 22.61397434 -25.875 20 C-25.26624023 19.53086182 -24.65748047 19.06172363 -24.03027344 18.57836914 C-18.44762501 14.29244981 -12.80937037 10.07652956 -7.15576172 5.88476562 C-6.5113916 5.40587891 -5.86702148 4.92699219 -5.203125 4.43359375 C-4.34702637 3.80022095 -4.34702637 3.80022095 -3.47363281 3.15405273 C-1.84944865 1.92993581 -1.84944865 1.92993581 0 0 Z M-90 148 C-89 151 -89 151 -89 151 Z M-124 149 C-124 149.99 -124 150.98 -124 152 C-125.65 152 -127.3 152 -129 152 C-129.33 153.32 -129.66 154.64 -130 156 C-127.36 156 -124.72 156 -122 156 C-122 153.69 -122 151.38 -122 149 C-122.66 149 -123.32 149 -124 149 Z " fill="#20769F" transform="translate(311,161)"/>
<path d="M0 0 C2.625 0.375 2.625 0.375 5 1 C4.4543227 7.23016489 3.9023517 13.45974887 3.34594727 19.68896484 C3.1573125 21.80927814 2.97013281 23.92972141 2.78442383 26.05029297 C2.51763884 29.09377612 2.24566871 32.13675747 1.97265625 35.1796875 C1.8491555 36.60787308 1.8491555 36.60787308 1.72315979 38.06491089 C1.60314857 39.38605392 1.60314857 39.38605392 1.48071289 40.73388672 C1.41187393 41.51110077 1.34303497 42.28831482 1.27210999 43.08908081 C1 45 1 45 0 47 C-3.36179774 45.55922954 -5.59156268 43.75249979 -8 41 C-8 40.34 -8 39.68 -8 39 C-8.66 39 -9.32 39 -10 39 C-10.26039063 39.56332031 -10.52078125 40.12664062 -10.7890625 40.70703125 C-12.12237817 43.23172898 -13.67013979 45.3963693 -15.375 47.6875 C-18.90195939 52.47499723 -22.3389212 57.31689964 -25.75 62.1875 C-31.65259684 70.59618491 -37.78884853 78.81757882 -44 87 C-45.24546405 84.50907189 -44.7767578 83.58919267 -44 81 C-46.62198774 78.84622436 -48.64404172 77.59927826 -52 77 C-52 76.01 -52 75.02 -52 74 C-52.99 74.495 -52.99 74.495 -54 75 C-52.16890675 70.91366196 -49.60281815 67.35357093 -47.0625 63.6875 C-46.57958496 62.98761963 -46.09666992 62.28773926 -45.59912109 61.56665039 C-41.3437336 55.43137561 -36.95216651 49.40158856 -32.5078125 43.40234375 C-31.671471 42.26852706 -30.8355394 41.13440791 -30 40 C-29.53948242 39.37883301 -29.07896484 38.75766602 -28.60449219 38.11767578 C-26.64173625 35.43242868 -25.05862675 33.17588025 -24 30 C-25.918125 30.0309375 -25.918125 30.0309375 -27.875 30.0625 C-31.75 30.125 -31.75 30.125 -34 29 C-32.45710456 24.78145044 -29.33753179 22.61397434 -25.875 20 C-24.96186035 19.29629272 -24.96186035 19.29629272 -24.03027344 18.57836914 C-18.44762501 14.29244981 -12.80937037 10.07652956 -7.15576172 5.88476562 C-6.5113916 5.40587891 -5.86702148 4.92699219 -5.203125 4.43359375 C-4.63239258 4.01134521 -4.06166016 3.58909668 -3.47363281 3.15405273 C-1.84944865 1.92993581 -1.84944865 1.92993581 0 0 Z " fill="#0DB2AB" transform="translate(311,161)"/>
<path d="M0 0 C1.32 0 2.64 0 4 0 C5.26237731 2.52475462 5.09856404 4.31200466 5.0625 7.125 C5.05347656 8.03507812 5.04445312 8.94515625 5.03515625 9.8828125 C5.02355469 10.58148438 5.01195312 11.28015625 5 12 C6.98 12.33 8.96 12.66 11 13 C11.16745546 17.94772024 11.32803118 22.8955972 11.48217773 27.84375 C11.53561424 29.5277307 11.59094488 31.21165239 11.64819336 32.89550781 C11.73005852 35.31302158 11.80515472 37.73066432 11.87890625 40.1484375 C11.90594131 40.9036972 11.93297638 41.65895691 11.96083069 42.43710327 C12.11387171 47.77225659 12.11387171 47.77225659 11 50 C9.02 50 7.04 50 5 50 C5 54.95 5 59.9 5 65 C3.02 65.495 3.02 65.495 1 66 C-0.75 64.75 -0.75 64.75 -2 63 C-2 62.01 -2 61.02 -2 60 C-1.34 60 -0.68 60 0 60 C-0.33 57.03 -0.66 54.06 -1 51 C-2.32 50.67 -3.64 50.34 -5 50 C-5.66 49.67 -6.32 49.34 -7 49 C-7.33 50.65 -7.66 52.3 -8 54 C-8.33 54 -8.66 54 -9 54 C-9.33 57.3 -9.66 60.6 -10 64 C-12.31 64 -14.62 64 -17 64 C-16.67 64.99 -16.34 65.98 -16 67 C-15.34 67.33 -14.68 67.66 -14 68 C-14.25 71.375 -14.25 71.375 -15 75 C-16.9375 76.5 -16.9375 76.5 -19 77 C-19.66 76.67 -20.32 76.34 -21 76 C-21.4140625 73.71484375 -21.4140625 73.71484375 -21.625 70.9375 C-21.69976562 70.01839844 -21.77453125 69.09929687 -21.8515625 68.15234375 C-21.90054688 67.44207031 -21.94953125 66.73179687 -22 66 C-24.31 66 -26.62 66 -29 66 C-29.19569589 63.43788925 -29.38180612 60.87567609 -29.5625 58.3125 C-29.61857422 57.59126953 -29.67464844 56.87003906 -29.73242188 56.12695312 C-29.99955159 52.22685936 -30.00887596 48.78888972 -29 45 C-28.67 45 -28.34 45 -28 45 C-27.505 36.09 -27.505 36.09 -27 27 C-25.02 26.67 -23.04 26.34 -21 26 C-21 24.35 -21 22.7 -21 21 C-19.68 21 -18.36 21 -17 21 C-17 22.98 -17 24.96 -17 27 C-15.5459375 26.9690625 -15.5459375 26.9690625 -14.0625 26.9375 C-11 27 -11 27 -10 28 C-9.76518307 30.18292774 -9.58636677 32.37203174 -9.4375 34.5625 C-9.31181641 36.35880859 -9.31181641 36.35880859 -9.18359375 38.19140625 C-9.12300781 39.11824219 -9.06242187 40.04507813 -9 41 C-8.67 41 -8.34 41 -8 41 C-7.67 31.76 -7.34 22.52 -7 13 C-4.69 13 -2.38 13 0 13 C0 8.71 0 4.42 0 0 Z M-10 43 C-9 46 -9 46 -9 46 Z " fill="#204C92" transform="translate(231,266)"/>
<path d="M0 0 C0.66 0 1.32 0 2 0 C2.33 0.66 2.66 1.32 3 2 C3.99 2.66 4.98 3.32 6 4 C5.01 4.33 4.02 4.66 3 5 C2.67 5.66 2.34 6.32 2 7 C2.53625 7.103125 3.0725 7.20625 3.625 7.3125 C6.79889748 8.2312598 9.23258574 9.15505716 12 11 C12.875 14.6875 12.875 14.6875 13 18 C14.65 18.33 16.3 18.66 18 19 C18.02705308 21.41674224 18.04686438 23.8331794 18.0625 26.25 C18.07087891 26.93191406 18.07925781 27.61382812 18.08789062 28.31640625 C18.10428392 31.69342554 18.05628768 34.77291639 17 38 C14.525 38.495 14.525 38.495 12 39 C11.95758277 41.33294775 11.95907063 43.66702567 12 46 C12.99491253 47.21651851 12.99491253 47.21651851 14.95014954 47.11352539 C15.8100499 47.10828857 16.66995026 47.10305176 17.5559082 47.09765625 C18.53664307 47.09440338 19.51737793 47.09115051 20.52783203 47.08779907 C21.60790527 47.07945038 22.68797852 47.07110168 23.80078125 47.0625 C26.12215115 47.05372966 28.44352163 47.04510994 30.76489258 47.03662109 C32.61046249 47.02728546 32.61046249 47.02728546 34.49331665 47.01776123 C67.29182656 46.86523074 100.06043933 47.13371885 132.8125 49 C133.54683258 49.04179382 134.28116516 49.08358765 135.03775024 49.12664795 C141.736657 49.5164351 148.35898106 49.98779421 155 51 C155 51.33 155 51.66 155 52 C95.27 52 35.54 52 -26 52 C-25.67 51.34 -25.34 50.68 -25 50 C-23.1015625 49.60522461 -23.1015625 49.60522461 -20.625 49.40234375 C-19.72136719 49.32306641 -18.81773437 49.24378906 -17.88671875 49.16210938 C-16.93410156 49.08798828 -15.98148438 49.01386719 -15 48.9375 C-13.14577768 48.78060427 -11.29161031 48.62305768 -9.4375 48.46484375 C-8.08011719 48.35245361 -8.08011719 48.35245361 -6.6953125 48.23779297 C-2.78830355 47.89309852 1.1039453 47.4510801 5 47 C5 43.37 5 39.74 5 36 C2.69 36 0.38 36 -2 36 C-2 30.72 -2 25.44 -2 20 C-5.08375495 21.02791832 -5.87790925 21.70106836 -8 24 C-8.515625 24.433125 -9.03125 24.86625 -9.5625 25.3125 C-11.53289926 27.6255774 -12.08358008 30.12855092 -13 33 C-15 35 -15 35 -18.125 35.125 C-19.07375 35.08375 -20.0225 35.0425 -21 35 C-21.25 32.75 -21.25 32.75 -21 30 C-19.25 28 -19.25 28 -17 26 C-12.90271676 21.36432096 -9.93830164 16.05896105 -6.8125 10.75 C-5.73692436 8.93155335 -4.66016584 7.11380565 -3.58203125 5.296875 C-3.10999268 4.49604492 -2.6379541 3.69521484 -2.15161133 2.87011719 C-1 1 -1 1 0 0 Z M3 11 C3 11.99 3 12.98 3 14 C1.35 14 -0.3 14 -2 14 C-2.33 15.32 -2.66 16.64 -3 18 C-0.36 18 2.28 18 5 18 C5 15.69 5 13.38 5 11 C4.34 11 3.68 11 3 11 Z " fill="#5A5FA1" transform="translate(184,299)"/>
<path d="M0 0 C1.65 0.33 3.3 0.66 5 1 C5 8.26 5 15.52 5 23 C6.98 23 8.96 23 11 23 C12.26218322 25.52436644 12.08309335 27.17770588 12.02172852 30.00048828 C11.99158409 31.56188034 11.99158409 31.56188034 11.96083069 33.15481567 C11.92027809 34.8454866 11.92027809 34.8454866 11.87890625 36.5703125 C11.85529526 37.72167694 11.83168427 38.87304138 11.80735779 40.05929565 C11.7305941 43.74798527 11.64662433 47.43647161 11.5625 51.125 C11.50929205 53.6210837 11.45655158 56.11717741 11.40429688 58.61328125 C11.27496179 64.74231412 11.13970512 70.87119521 11 77 C8.03 77.495 8.03 77.495 5 78 C4.97310784 79.47906892 4.95365379 80.95827483 4.9375 82.4375 C4.92589844 83.26121094 4.91429687 84.08492188 4.90234375 84.93359375 C4.76732652 86.99163938 4.76732652 86.99163938 6 88 C5.91036938 89.69141656 5.75422324 91.37959602 5.5625 93.0625 C5.46066406 93.98160156 5.35882813 94.90070313 5.25390625 95.84765625 C5.17011719 96.55792969 5.08632813 97.26820313 5 98 C2.5625 97.625 2.5625 97.625 0 97 C-1.17829199 94.64341603 -1.04414372 93.47426764 -0.87890625 90.8671875 C-0.83056641 90.06152344 -0.78222656 89.25585938 -0.73242188 88.42578125 C-0.67634766 87.58402344 -0.62027344 86.74226563 -0.5625 85.875 C-0.51029297 85.02550781 -0.45808594 84.17601562 -0.40429688 83.30078125 C-0.27448622 81.20020876 -0.1378826 79.10005809 0 77 C-1.98 77 -3.96 77 -6 77 C-6 59.18 -6 41.36 -6 23 C-4.02 23 -2.04 23 0 23 C0 15.41 0 7.82 0 0 Z " fill="#1480A0" transform="translate(293,223)"/>
<path d="M0 0 C5.94 0 11.88 0 18 0 C18 12.54 18 25.08 18 38 C17.01 38 16.02 38 15 38 C15 38.66 15 39.32 15 40 C13.68 39.34 12.36 38.68 11 38 C11.16749756 38.68860107 11.33499512 39.37720215 11.50756836 40.08666992 C12.05995917 43.35473118 12.0149856 46.30201716 11.87890625 49.61328125 C11.83056641 50.86044922 11.78222656 52.10761719 11.73242188 53.39257812 C11.67634766 54.68615234 11.62027344 55.97972656 11.5625 57.3125 C11.51029297 58.62541016 11.45808594 59.93832031 11.40429688 61.29101562 C11.2748336 64.52759739 11.13987458 67.76385421 11 71 C9.35 71 7.7 71 6 71 C6 60.11 6 49.22 6 38 C3.69 38 1.38 38 -1 38 C-1.02464928 32.74894558 -1.04283568 27.49792455 -1.05493164 22.24682617 C-1.05997218 20.45905979 -1.06680454 18.67129755 -1.07543945 16.88354492 C-1.0875173 14.31948832 -1.09323094 11.75548603 -1.09765625 9.19140625 C-1.10281754 8.3872377 -1.10797882 7.58306915 -1.11329651 6.75453186 C-1.11349215 4.83598285 -1.06201983 2.91754632 -1 1 C-0.67 0.67 -0.34 0.34 0 0 Z " fill="#109DA4" transform="translate(308,226)"/>
<path d="M0 0 C1.32 0 2.64 0 4 0 C4 4.95 4 9.9 4 15 C6.31 15 8.62 15 11 15 C11.16739428 20.80224272 11.32797646 26.60461821 11.48217773 32.40722656 C11.53563041 34.3822134 11.59096225 36.35715029 11.64819336 38.33203125 C11.73001326 41.16655708 11.80512918 44.00119236 11.87890625 46.8359375 C11.90594131 47.72243988 11.93297638 48.60894226 11.96083069 49.52230835 C12.11387171 55.77225659 12.11387171 55.77225659 11 58 C9.35448038 58.71727778 7.68577711 59.38325228 6 60 C5.01 60.495 5.01 60.495 4 61 C3.67 61.99 3.34 62.98 3 64 C1.68 63.67 0.36 63.34 -1 63 C-1 61.35 -1 59.7 -1 58 C-2.98 58 -4.96 58 -7 58 C-7 43.81 -7 29.62 -7 15 C-5.02 15 -3.04 15 -1 15 C-1.01160156 14.00097656 -1.02320313 13.00195312 -1.03515625 11.97265625 C-1.04417969 10.68230469 -1.05320312 9.39195312 -1.0625 8.0625 C-1.07410156 6.77472656 -1.08570313 5.48695313 -1.09765625 4.16015625 C-1 1 -1 1 0 0 Z " fill="#3071A1" transform="translate(273,270)"/>
<path d="M0 0 C1.32 0 2.64 0 4 0 C4 1.98 4 3.96 4 6 C5.98 6 7.96 6 10 6 C10.0246501 11.10863896 10.04283607 16.21724359 10.05493164 21.32592773 C10.05997204 23.06519168 10.0668043 24.80445136 10.07543945 26.54370117 C10.08751792 29.03825937 10.09323108 31.53276173 10.09765625 34.02734375 C10.10281754 34.80963852 10.10797882 35.59193329 10.11329651 36.39793396 C10.11349226 38.26567114 10.06199694 40.13329204 10 42 C9 43 9 43 6.4375 43.0625 C5.633125 43.041875 4.82875 43.02125 4 43 C4.33 43.99 4.66 44.98 5 46 C5.66 46.33 6.32 46.66 7 47 C6.75 50.375 6.75 50.375 6 54 C4.0625 55.5 4.0625 55.5 2 56 C1.34 55.67 0.68 55.34 0 55 C-0.4140625 52.71484375 -0.4140625 52.71484375 -0.625 49.9375 C-0.69976562 49.01839844 -0.77453125 48.09929687 -0.8515625 47.15234375 C-0.90054688 46.44207031 -0.94953125 45.73179687 -1 45 C-3.31 45 -5.62 45 -8 45 C-8.19569589 42.43788925 -8.38180612 39.87567609 -8.5625 37.3125 C-8.61857422 36.59126953 -8.67464844 35.87003906 -8.73242188 35.12695312 C-8.99955159 31.22685936 -9.00887596 27.78888972 -8 24 C-7.67 24 -7.34 24 -7 24 C-6.505 15.09 -6.505 15.09 -6 6 C-4.02 5.67 -2.04 5.34 0 5 C0 3.35 0 1.7 0 0 Z " fill="#22358B" transform="translate(210,287)"/>
<path d="M0 0 C0.99 0 1.98 0 3 0 C2.835 0.763125 2.67 1.52625 2.5 2.3125 C1.90854604 5.03596236 1.90854604 5.03596236 2 8 C3.65 7.67 5.3 7.34 7 7 C7 8.32 7 9.64 7 11 C6.01 11.66 5.02 12.32 4 13 C3.62101562 14.28970703 3.62101562 14.28970703 3.234375 15.60546875 C1.51183022 20.34246691 -1.47696235 23.535658 -4.75 27.3125 C-9.08617172 32.36064907 -13.09334168 37.41355325 -16.69213867 43.01928711 C-19.24672599 46.88812543 -22.13795872 50.24058268 -25.625 53.3125 C-28.37690449 56.42649718 -29.28370556 59.07444657 -30.421875 63.01171875 C-31 65 -31 65 -32 67 C-33.65 66.01 -35.3 65.02 -37 64 C-36.67 63.01 -36.34 62.02 -36 61 C-35.34 61 -34.68 61 -34 61 C-35.32 59.68 -36.64 58.36 -38 57 C-36.75994442 53.65646696 -35.36503997 50.84549884 -33.32421875 47.92578125 C-28.92655744 41.47952825 -24.96955643 34.77205346 -20.94726562 28.08789062 C-20.35236328 27.10369141 -19.75746094 26.11949219 -19.14453125 25.10546875 C-18.61190674 24.22012451 -18.07928223 23.33478027 -17.53051758 22.42260742 C-16.11023557 20.17448836 -14.72262791 18.02705404 -13 16 C-12.34 16 -11.68 16 -11 16 C-11 15.34 -11 14.68 -11 14 C-10.34 14 -9.68 14 -9 14 C-9 13.34 -9 12.68 -9 12 C-6.69 11.34 -4.38 10.68 -2 10 C-2.66 9.34 -3.32 8.68 -4 8 C-3.625 5.375 -3.625 5.375 -3 3 C-2.01 2.67 -1.02 2.34 0 2 C0 1.34 0 0.68 0 0 Z " fill="#214A8F" transform="translate(223,242)"/>
<path d="M0 0 C0.99 0.33 1.98 0.66 3 1 C2.4740625 2.11375 2.4740625 2.11375 1.9375 3.25 C0.95489906 6.13229609 0.81845104 7.24305242 2 10 C2.66 10.33 3.32 10.66 4 11 C4 12.65 4 14.3 4 16 C5.32 15.34 6.64 14.68 8 14 C8 13.34 8 12.68 8 12 C8.66 12 9.32 12 10 12 C10.144375 11.4225 10.28875 10.845 10.4375 10.25 C10.7159375 9.13625 10.7159375 9.13625 11 8 C11.185625 6.9171875 11.185625 6.9171875 11.375 5.8125 C11.58125 5.214375 11.7875 4.61625 12 4 C12.99 3.67 13.98 3.34 15 3 C15.75 4.68359375 15.75 4.68359375 16 7 C14.375 9.41015625 14.375 9.41015625 12 12.0625 C8.93548142 15.62993804 6.1829276 19.10083945 3.75 23.125 C-0.33028358 29.77222255 -5.13546173 35.83325869 -9.9140625 41.984375 C-12.70950804 45.58971598 -15.37342667 49.27007059 -18 53 C-19.24546405 50.50907189 -18.7767578 49.58919267 -18 47 C-20.62198774 44.84622436 -22.64404172 43.59927826 -26 43 C-26 42.01 -26 41.02 -26 40 C-26.99 40.495 -26.99 40.495 -28 41 C-26.16889417 36.91363389 -23.60273968 33.35365281 -21.0625 29.6875 C-20.58031006 28.98834473 -20.09812012 28.28918945 -19.60131836 27.56884766 C-15.73331913 21.99015922 -11.75551905 16.49718087 -7.70532227 11.04956055 C-5.02169854 7.43413005 -2.46731934 3.76681235 0 0 Z " fill="#219DAA" transform="translate(285,195)"/>
<path d="M0 0 C0.33 0 0.66 0 1 0 C1 3.3 1 6.6 1 10 C1.99 10 2.98 10 4 10 C4 6.7 4 3.4 4 0 C6.29823659 2.29823659 6.29690384 2.94880882 6.5625 6.0625 C6.55913448 9.76736617 6.55913448 9.76736617 8 11 C9.51641764 11.08827626 11.03695146 11.10690674 12.5559082 11.09765625 C13.53664307 11.09440338 14.51737793 11.09115051 15.52783203 11.08779907 C16.60790527 11.07945038 17.68797852 11.07110168 18.80078125 11.0625 C21.12215115 11.05372966 23.44352163 11.04510994 25.76489258 11.03662109 C26.99527252 11.03039734 28.22565247 11.02417358 29.49331665 11.01776123 C62.29182656 10.86523074 95.06043933 11.13371885 127.8125 13 C128.54683258 13.04179382 129.28116516 13.08358765 130.03775024 13.12664795 C136.736657 13.5164351 143.35898106 13.98779421 150 15 C150 15.33 150 15.66 150 16 C90.27 16 30.54 16 -31 16 C-30.67 15.34 -30.34 14.68 -30 14 C-28.1015625 13.60522461 -28.1015625 13.60522461 -25.625 13.40234375 C-24.72136719 13.32306641 -23.81773437 13.24378906 -22.88671875 13.16210938 C-21.93410156 13.08798828 -20.98148438 13.01386719 -20 12.9375 C-18.14577768 12.78060427 -16.29161031 12.62305768 -14.4375 12.46484375 C-13.08011719 12.35245361 -13.08011719 12.35245361 -11.6953125 12.23779297 C-7.78830355 11.89309852 -3.8960547 11.4510801 0 11 C0 7.37 0 3.74 0 0 Z " fill="#DAD9DE" transform="translate(189,335)"/>
<path d="M0 0 C1.32 0 2.64 0 4 0 C4 11.88 4 23.76 4 36 C6.31 36 8.62 36 11 36 C11.63495676 45.24214838 11.63495676 45.24214838 9.0625 48.3125 C8.381875 48.869375 7.70125 49.42625 7 50 C6.62690101 51.65821773 6.29299023 53.32577014 6 55 C4.4375 57.3125 4.4375 57.3125 3 59 C1.68 58.67 0.36 58.34 -1 58 C-1 55.03 -1 52.06 -1 49 C-2.65 49 -4.3 49 -6 49 C-6.83796731 44.34462607 -7.0161692 40.62921525 -6 36 C-4.35 36 -2.7 36 -1 36 C-1.00523682 34.94498291 -1.01047363 33.88996582 -1.01586914 32.80297852 C-1.03391901 28.9024337 -1.04543195 25.0018926 -1.05493164 21.10131836 C-1.0599719 19.41055684 -1.06680405 17.71979971 -1.07543945 16.02905273 C-1.08751857 13.60399293 -1.09323123 11.17899056 -1.09765625 8.75390625 C-1.10281754 7.99348526 -1.10797882 7.23306427 -1.11329651 6.44960022 C-1.11349238 4.6326743 -1.06197277 2.81586873 -1 1 C-0.67 0.67 -0.34 0.34 0 0 Z " fill="#2D538D" transform="translate(252,280)"/>
<path d="M0 0 C3.60260955 1.39066501 6.62407815 2.93593425 9.8125 5.125 C10.60269531 5.66382813 11.39289063 6.20265625 12.20703125 6.7578125 C12.79871094 7.16773438 13.39039063 7.57765625 14 8 C13.401875 8.144375 12.80375 8.28875 12.1875 8.4375 C10.43849596 8.8872439 8.71322977 9.42892341 7 10 C7 11.32 7 12.64 7 14 C7.99 14.33 8.98 14.66 10 15 C10 18.63 10 22.26 10 26 C8.35 25.34 6.7 24.68 5 24 C4.44570312 24.62648437 3.89140625 25.25296875 3.3203125 25.8984375 C2.59585938 26.71570313 1.87140625 27.53296875 1.125 28.375 C0.40570313 29.18710938 -0.31359375 29.99921875 -1.0546875 30.8359375 C-2.33295938 32.25795079 -3.64794586 33.64794586 -5 35 C-4.67 33.35 -4.34 31.7 -4 30 C-3.01 29.67 -2.02 29.34 -1 29 C-1 27.68 -1 26.36 -1 25 C-1.66 25 -2.32 25 -3 25 C-3.33 25.66 -3.66 26.32 -4 27 C-5.32 26.67 -6.64 26.34 -8 26 C-7.649375 25.401875 -7.29875 24.80375 -6.9375 24.1875 C-5.66695302 21.89186786 -5.66695302 21.89186786 -7 19 C-9.52588702 21.36292656 -10.88820837 22.66462511 -12 26 C-11.01 26.33 -10.02 26.66 -9 27 C-9.66 27.99 -10.32 28.98 -11 30 C-14.125 30.1875 -14.125 30.1875 -17 30 C-17 30.66 -17 31.32 -17 32 C-17.66 32 -18.32 32 -19 32 C-19 32.66 -19 33.32 -19 34 C-19.66 33.67 -20.32 33.34 -21 33 C-18.81827121 29.37149784 -16.62854502 25.74788294 -14.4375 22.125 C-13.82841797 21.11179688 -13.21933594 20.09859375 -12.59179688 19.0546875 C-8.6331157 12.51972174 -4.468379 6.19782467 0 0 Z " fill="#2C719D" transform="translate(231,224)"/>
<path d="M0 0 C0.99 0 1.98 0 3 0 C3 2.97 3 5.94 3 9 C4.65 9 6.3 9 8 9 C8 13.62 8 18.24 8 23 C8.99 23.33 9.98 23.66 11 24 C11 24.99 11 25.98 11 27 C9.35 27.33 7.7 27.66 6 28 C6 28.99 6 29.98 6 31 C5.34 31 4.68 31 4 31 C4.33 29.35 4.66 27.7 5 26 C4.34 25.67 3.68 25.34 3 25 C3 28.3 3 31.6 3 35 C2.01 35 1.02 35 0 35 C0 31.7 0 28.4 0 25 C-2.31 25 -4.62 25 -7 25 C-7 19.39 -7 13.78 -7 8 C-5.02 7.67 -3.04 7.34 -1 7 C-0.67 4.69 -0.34 2.38 0 0 Z " fill="#1E2080" transform="translate(190,310)"/>
<path d="M0 0 C1.28238342 7.40932642 1.28238342 7.40932642 0 11 C-0.33 11.99 -0.66 12.98 -1 14 C-2.48828125 15.4296875 -2.48828125 15.4296875 -4.3125 16.875 C-9.4665291 21.17178812 -12.13221895 24.20238178 -13 31 C-14.0625 33.375 -14.0625 33.375 -15 35 C-16.65 34.01 -18.3 33.02 -20 32 C-19.67 31.01 -19.34 30.02 -19 29 C-18.34 29 -17.68 29 -17 29 C-18.32 27.68 -19.64 26.36 -21 25 C-19.74608309 21.61087552 -18.3159948 18.77264846 -16.25 15.8125 C-13.39376471 11.67756083 -10.95079325 7.40322906 -8.58984375 2.96875 C-7 1 -7 1 -4.44140625 0.21875 C-2 0 -2 0 0 0 Z " fill="#254189" transform="translate(206,274)"/>
<path d="M0 0 C5.94 0 11.88 0 18 0 C18 12.54 18 25.08 18 38 C17.01 38 16.02 38 15 38 C15 38.66 15 39.32 15 40 C13.68 39.34 12.36 38.68 11 38 C11.16749756 38.68860107 11.33499512 39.37720215 11.50756836 40.08666992 C12.05995917 43.35473118 12.0149856 46.30201716 11.87890625 49.61328125 C11.83056641 50.86044922 11.78222656 52.10761719 11.73242188 53.39257812 C11.67634766 54.68615234 11.62027344 55.97972656 11.5625 57.3125 C11.51029297 58.62541016 11.45808594 59.93832031 11.40429688 61.29101562 C11.2748336 64.52759739 11.13987458 67.76385421 11 71 C9.35 71 7.7 71 6 71 C6 60.11 6 49.22 6 38 C3.69 38 1.38 38 -1 38 C-1.02464928 32.74894558 -1.04283568 27.49792455 -1.05493164 22.24682617 C-1.05997218 20.45905979 -1.06680454 18.67129755 -1.07543945 16.88354492 C-1.0875173 14.31948832 -1.09323094 11.75548603 -1.09765625 9.19140625 C-1.10281754 8.3872377 -1.10797882 7.58306915 -1.11329651 6.75453186 C-1.11349215 4.83598285 -1.06201983 2.91754632 -1 1 C-0.67 0.67 -0.34 0.34 0 0 Z M0 1 C0 12.88 0 24.76 0 37 C4.36969669 36.27931382 4.36969669 36.27931382 8.6875 35.3125 C11 35 11 35 14 37 C14.99 37 15.98 37 17 37 C17 25.12 17 13.24 17 1 C11.39 1 5.78 1 0 1 Z " fill="#7CCAD3" transform="translate(308,226)"/>
<path d="M0 0 C1.65 0.33 3.3 0.66 5 1 C5 8.26 5 15.52 5 23 C6.98 23 8.96 23 11 23 C12.26218322 25.52436644 12.08309335 27.17770588 12.02172852 30.00048828 C11.99158409 31.56188034 11.99158409 31.56188034 11.96083069 33.15481567 C11.92027809 34.8454866 11.92027809 34.8454866 11.87890625 36.5703125 C11.85529526 37.72167694 11.83168427 38.87304138 11.80735779 40.05929565 C11.7305941 43.74798527 11.64662433 47.43647161 11.5625 51.125 C11.50929205 53.6210837 11.45655158 56.11717741 11.40429688 58.61328125 C11.27496179 64.74231412 11.13970512 70.87119521 11 77 C7.535 77.495 7.535 77.495 4 78 C4 77.34 4 76.68 4 76 C5.98 76 7.96 76 10 76 C10 58.84 10 41.68 10 24 C6 25.5 6 25.5 5 28 C4.67 27.34 4.34 26.68 4 26 C3.01 26 2.02 26 1 26 C1 25.34 1 24.68 1 24 C-0.98 24 -2.96 24 -5 24 C-5 41.16 -5 58.32 -5 76 C-3.02 76 -1.04 76 1 76 C1 82.6 1 89.2 1 96 C2.32 96 3.64 96 5 96 C4.505 96.99 4.505 96.99 4 98 C2.0625 97.625 2.0625 97.625 0 97 C-1.17829199 94.64341603 -1.04414372 93.47426764 -0.87890625 90.8671875 C-0.83056641 90.06152344 -0.78222656 89.25585938 -0.73242188 88.42578125 C-0.67634766 87.58402344 -0.62027344 86.74226563 -0.5625 85.875 C-0.51029297 85.02550781 -0.45808594 84.17601562 -0.40429688 83.30078125 C-0.27448622 81.20020876 -0.1378826 79.10005809 0 77 C-1.98 77 -3.96 77 -6 77 C-6 59.18 -6 41.36 -6 23 C-4.02 23 -2.04 23 0 23 C0 15.41 0 7.82 0 0 Z " fill="#469BA8" transform="translate(293,223)"/>
<path d="M0 0 C1.32 0 2.64 0 4 0 C5.26237731 2.52475462 5.09856404 4.31200466 5.0625 7.125 C5.05347656 8.03507812 5.04445312 8.94515625 5.03515625 9.8828125 C5.02355469 10.58148438 5.01195312 11.28015625 5 12 C7.97 12.495 7.97 12.495 11 13 C11.33 24.55 11.66 36.1 12 48 C11.01 48.495 11.01 48.495 10 49 C9.67 43.39 9.34 37.78 9 32 C8.67 32 8.34 32 8 32 C8 28.7 8 25.4 8 22 C7.01 22 6.02 22 5 22 C5 21.34 5 20.68 5 20 C5.99 20 6.98 20 8 20 C8 18.68 8 17.36 8 16 C7.401875 16.33 6.80375 16.66 6.1875 17 C4 18 4 18 1 18 C0.67 17.01 0.34 16.02 0 15 C-2.97 14.505 -2.97 14.505 -6 14 C-5.67 25.55 -5.34 37.1 -5 49 C-5.66 49 -6.32 49 -7 49 C-7.495 51.475 -7.495 51.475 -8 54 C-8.33 54 -8.66 54 -9 54 C-9.33 57.3 -9.66 60.6 -10 64 C-10.66 63.67 -11.32 63.34 -12 63 C-11.67 51.45 -11.34 39.9 -11 28 C-10.67 28 -10.34 28 -10 28 C-9.67 32.29 -9.34 36.58 -9 41 C-8.67 41 -8.34 41 -8 41 C-7.67 31.76 -7.34 22.52 -7 13 C-4.69 13 -2.38 13 0 13 C0 8.71 0 4.42 0 0 Z M-10 43 C-9 46 -9 46 -9 46 Z " fill="#5A85B2" transform="translate(231,266)"/>
<path d="M0 0 C0.33 0.66 0.66 1.32 1 2 C0.67 2.99 0.34 3.98 0 5 C1.65 4.67 3.3 4.34 5 4 C5.33 4.99 5.66 5.98 6 7 C6.99 7.33 7.98 7.66 9 8 C8.67 9.32 8.34 10.64 8 12 C7.34 12 6.68 12 6 12 C5.979375 12.969375 5.95875 13.93875 5.9375 14.9375 C5.23061788 20.32747613 1.44908648 24.02859755 -2 28 C-3.24546405 25.50907189 -2.7767578 24.58919267 -2 22 C-4.62198774 19.84622436 -6.64404172 18.59927826 -10 18 C-10 17.01 -10 16.02 -10 15 C-10.99 15.495 -10.99 15.495 -12 16 C-10.47254917 12.73231911 -8.61797287 9.83664909 -6.5625 6.875 C-5.96566406 6.00617188 -5.36882812 5.13734375 -4.75390625 4.2421875 C-3 2 -3 2 0 0 Z " fill="#1787A7" transform="translate(269,220)"/>
<path d="M0 0 C0.72443298 0.04170319 1.44886597 0.08340637 2.19525146 0.12637329 C8.82931068 0.51693217 15.36381324 1.00091201 21.9375 2 C21.9375 2.33 21.9375 2.66 21.9375 3 C3.7875 3 -14.3625 3 -33.0625 3 C-33.0625 2.34 -33.0625 1.68 -33.0625 1 C-37.37498609 0.97113463 -41.68744762 0.95324745 -46 0.9375 C-47.23169922 0.92912109 -48.46339844 0.92074219 -49.73242188 0.91210938 C-50.90224609 0.90888672 -52.07207031 0.90566406 -53.27734375 0.90234375 C-54.36136475 0.89710693 -55.44538574 0.89187012 -56.56225586 0.88647461 C-59.00299948 0.71573103 -59.00299948 0.71573103 -60.0625 2 C-62.92517567 2.07325168 -65.763219 2.09238205 -68.625 2.0625 C-69.43130859 2.05798828 -70.23761719 2.05347656 -71.06835938 2.04882812 C-73.06643756 2.03700518 -75.06447783 2.01906914 -77.0625 2 C-77.0625 1.67 -77.0625 1.34 -77.0625 1 C-82.3425 0.67 -87.6225 0.34 -93.0625 0 C-93.0625 -0.33 -93.0625 -0.66 -93.0625 -1 C-62.14253113 -3.07623758 -30.90879598 -1.787152 0 0 Z " fill="#D0D1D1" transform="translate(317.0625,348)"/>
<path d="M0 0 C2.31 0 4.62 0 7 0 C7.33 13.86 7.66 27.72 8 42 C5.36 42 2.72 42 0 42 C-0.33 43.32 -0.66 44.64 -1 46 C-1.66 46 -2.32 46 -3 46 C-3 44.35 -3 42.7 -3 41 C-4.98 41 -6.96 41 -9 41 C-9 32.09 -9 23.18 -9 14 C-8.67 14 -8.34 14 -8 14 C-7.34 21.59 -6.68 29.18 -6 37 C0.63019987 37.64715023 0.63019987 37.64715023 4 35 C4.33792536 32.38322508 4.48886089 29.99063608 4.51171875 27.3671875 C4.52966995 26.61535187 4.54762115 25.86351624 4.56611633 25.08889771 C4.62035781 22.68432244 4.65415792 20.27994715 4.6875 17.875 C4.72066102 16.24606583 4.75514955 14.6171581 4.79101562 12.98828125 C4.87609162 8.99233154 4.94283578 4.99644254 5 1 C3.35 1 1.7 1 0 1 C0 0.67 0 0.34 0 0 Z " fill="#144B75" transform="translate(276,286)"/>
<path d="M0 0 C13.365 0.495 13.365 0.495 27 1 C27 1.33 27 1.66 27 2 C29.14576637 2.02685938 31.29162645 2.04633088 33.4375 2.0625 C35.22994141 2.07990234 35.22994141 2.07990234 37.05859375 2.09765625 C39.88873341 2.33901792 39.88873341 2.33901792 41 1 C42.99964982 0.91241997 45.0023611 0.89303424 47.00390625 0.90234375 C48.21884766 0.90556641 49.43378906 0.90878906 50.68554688 0.91210938 C51.96494141 0.92048828 53.24433594 0.92886719 54.5625 0.9375 C55.84576172 0.94201172 57.12902344 0.94652344 58.45117188 0.95117188 C61.63416022 0.96300455 64.81705762 0.97948932 68 1 C67.67 1.99 67.34 2.98 67 4 C42.25 4 17.5 4 -8 4 C-8 3.67 -8 3.34 -8 3 C-4.7 3 -1.4 3 2 3 C2 2.34 2 1.68 2 1 C1.34 0.67 0.68 0.34 0 0 Z " fill="#BEBDBE" transform="translate(217,347)"/>
<path d="M0 0 C1.60725635 3.21451269 1.05748185 6.43612536 1 10 C-0.98 10.99 -0.98 10.99 -3 12 C-3 12.66 -3 13.32 -3 14 C-5.64 14 -8.28 14 -11 14 C-11 9.38 -11 4.76 -11 0 C-6.52025503 -0.89594899 -4.29090063 -1.07272516 0 0 Z " fill="#22258B" transform="translate(196,320)"/>
<path d="M0 0 C0.66 0 1.32 0 2 0 C3.90079664 4.01535068 4.23570807 7.18996591 4.1953125 11.61328125 C4.18886719 12.86044922 4.18242187 14.10761719 4.17578125 15.39257812 C4.15902344 16.68615234 4.14226562 17.97972656 4.125 19.3125 C4.11597656 20.62541016 4.10695313 21.93832031 4.09765625 23.29101562 C4.07411797 26.52752913 4.0412352 29.76367149 4 33 C2.35 33 0.7 33 -1 33 C-1.20535341 21.979367 -0.58130339 11.00147577 0 0 Z " fill="#469CA8" transform="translate(315,264)"/>
<path d="M0 0 C0.99 0 1.98 0 3 0 C2.835 0.763125 2.67 1.52625 2.5 2.3125 C1.90854604 5.03596236 1.90854604 5.03596236 2 8 C3.65 7.67 5.3 7.34 7 7 C7 8.32 7 9.64 7 11 C6.01 11.66 5.02 12.32 4 13 C3.566875 14.3921875 3.566875 14.3921875 3.125 15.8125 C1.79825249 19.57161793 -0.06070316 21.37010283 -3 24 C-4.37810527 21.24378946 -3.97919884 18.90736665 -3.83984375 15.875 C-3.81834421 13.75208132 -3.81834421 13.75208132 -6 12 C-4.68 11.34 -3.36 10.68 -2 10 C-2.66 9.34 -3.32 8.68 -4 8 C-3.625 5.375 -3.625 5.375 -3 3 C-2.01 2.67 -1.02 2.34 0 2 C0 1.34 0 0.68 0 0 Z " fill="#1F6199" transform="translate(223,242)"/>
<path d="M0 0 C0 3.93105845 -1.23294427 4.56041253 -3.9375 7.3125 C-7.23688578 10.88441852 -8.76827895 13.01799739 -9 18 C-10.0625 20.375 -10.0625 20.375 -11 22 C-12.65 21.01 -14.3 20.02 -16 19 C-15.67 18.01 -15.34 17.02 -15 16 C-14.34 16 -13.68 16 -13 16 C-14.32 14.68 -15.64 13.36 -17 12 C-15.125 7.125 -15.125 7.125 -14 6 C-12.15108054 5.76636119 -10.29511969 5.58696365 -8.4375 5.4375 C-7.42558594 5.35371094 -6.41367188 5.26992188 -5.37109375 5.18359375 C-4.58863281 5.12300781 -3.80617187 5.06242187 -3 5 C-2.87625 4.360625 -2.7525 3.72125 -2.625 3.0625 C-2.41875 2.381875 -2.2125 1.70125 -2 1 C-1.34 0.67 -0.68 0.34 0 0 Z " fill="#33418C" transform="translate(202,287)"/>
<path d="M0 0 C1.32 0.33 2.64 0.66 4 1 C3.01 1 2.02 1 1 1 C1 5.29 1 9.58 1 14 C-1.31 14 -3.62 14 -6 14 C-5.67 25.55 -5.34 37.1 -5 49 C-5.66 49 -6.32 49 -7 49 C-7.495 51.475 -7.495 51.475 -8 54 C-8.33 54 -8.66 54 -9 54 C-9.33 57.3 -9.66 60.6 -10 64 C-10.66 63.67 -11.32 63.34 -12 63 C-11.67 51.45 -11.34 39.9 -11 28 C-10.67 28 -10.34 28 -10 28 C-9.67 32.29 -9.34 36.58 -9 41 C-8.67 41 -8.34 41 -8 41 C-7.67 31.76 -7.34 22.52 -7 13 C-4.69 13 -2.38 13 0 13 C0 8.71 0 4.42 0 0 Z M-10 43 C-9 46 -9 46 -9 46 Z " fill="#8AA0C5" transform="translate(231,266)"/>
<path d="M0 0 C0.66 0.66 1.32 1.32 2 2 C1.64790401 5.40598974 0.02440166 7.64080942 -1.9375 10.375 C-4.33105596 13.84251425 -5.80995672 16.9340188 -7 21 C-9 23 -9 23 -12.125 23.125 C-13.548125 23.063125 -13.548125 23.063125 -15 23 C-15.25 20.75 -15.25 20.75 -15 18 C-13.25 16 -13.25 16 -11 14 C-10.34 13.175 -9.68 12.35 -9 11.5 C-7 9 -7 9 -4.9375 7 C-2.84491655 4.83991386 -1.45626481 2.62127666 0 0 Z " fill="#3D4566" transform="translate(178,311)"/>
<path d="M0 0 C0.99 0 1.98 0 3 0 C3 11.88 3 23.76 3 36 C2.01 36 1.02 36 0 36 C0 24.12 0 12.24 0 0 Z " fill="#083E75" transform="translate(252,281)"/>
<path d="M0 0 C0.33 0 0.66 0 1 0 C1 11.88 1 23.76 1 36 C3.31 36.33 5.62 36.66 8 37 C8.33 38.32 8.66 39.64 9 41 C7.02 40.01 5.04 39.02 3 38 C2.01 40.475 2.01 40.475 1 43 C-0.32 43 -1.64 43 -3 43 C-3.66 40.36 -4.32 37.72 -5 35 C-3.35 35 -1.7 35 0 35 C0 23.45 0 11.9 0 0 Z " fill="#93A8C6" transform="translate(251,281)"/>
<path d="M0 0 C0.66 0 1.32 0 2 0 C2 10.89 2 21.78 2 33 C3.65 33 5.3 33 7 33 C6.01 33.495 6.01 33.495 5 34 C5 34.99 5 35.98 5 37 C3.0625 36.625 3.0625 36.625 1 36 C-0.53297297 32.93405406 -0.12131455 29.72888147 -0.09765625 26.3671875 C-0.0962413 25.61535187 -0.09482635 24.86351624 -0.09336853 24.08889771 C-0.08776465 21.6842249 -0.07521157 19.27964473 -0.0625 16.875 C-0.0574855 15.24609509 -0.0529225 13.61718873 -0.04882812 11.98828125 C-0.03779397 7.99215173 -0.02052679 3.99609158 0 0 Z " fill="#0F2F6E" transform="translate(225,280)"/>
<path d="M0 0 C1.98 0 3.96 0 6 0 C6 11.55 6 23.1 6 35 C4 36 4 36 -1 35 C-1 38.63 -1 42.26 -1 46 C-1.66 46 -2.32 46 -3 46 C-3.33 42.7 -3.66 39.4 -4 36 C-5.65 35.67 -7.3 35.34 -9 35 C-9 34.67 -9 34.34 -9 34 C-4.38 34 0.24 34 5 34 C5 23.44 5 12.88 5 2 C3.35 2 1.7 2 0 2 C0 1.34 0 0.68 0 0 Z " fill="#0B1761" transform="translate(214,294)"/>
<path d="M0 0 C1.98 0 3.96 0 6 0 C4.68 0.33 3.36 0.66 2 1 C2 5.95 2 10.9 2 16 C5.96 16 9.92 16 14 16 C12.68 16.33 11.36 16.66 10 17 C10 20.3 10 23.6 10 27 C9.01 27 8.02 27 7 27 C7 23.7 7 20.4 7 17 C4.69 17 2.38 17 0 17 C0 11.39 0 5.78 0 0 Z " fill="#0C0B59" transform="translate(183,318)"/>
<path d="M0 0 C0.33 0 0.66 0 1 0 C1 12.87 1 25.74 1 39 C2.98 39 4.96 39 7 39 C7 40.65 7 42.3 7 44 C7.37125 43.175 7.7425 42.35 8.125 41.5 C8.74375 40.675 9.3625 39.85 10 39 C13.1875 38.6875 13.1875 38.6875 16 39 C14.625 41 14.625 41 13 43 C12.34 43 11.68 43 11 43 C10.67 43.99 10.34 44.98 10 46 C8.68 45.67 7.36 45.34 6 45 C6 43.35 6 41.7 6 40 C4.02 40 2.04 40 0 40 C0 26.8 0 13.6 0 0 Z " fill="#98BCD5" transform="translate(266,288)"/>
<path d="M0 0 C0 1.32 0 2.64 0 4 C-7.68604474 4.97159933 -15.25863399 5.10920422 -23 5 C-22.01 4.67 -21.02 4.34 -20 4 C-20 3.34 -20 2.68 -20 2 C-13.23514355 0.3879491 -6.95041086 -0.26618595 0 0 Z " fill="#CFCDD5" transform="translate(219,346)"/>
<path d="M0 0 C0.99 0 1.98 0 3 0 C3.06058594 0.78246094 3.12117188 1.56492187 3.18359375 2.37109375 C3.26738281 3.38300781 3.35117187 4.39492188 3.4375 5.4375 C3.55931641 6.95150391 3.55931641 6.95150391 3.68359375 8.49609375 C3.73211468 10.93640779 3.73211468 10.93640779 5 12 C4.71269945 14.33944736 4.38063221 16.6739143 4 19 C2.68 19.33 1.36 19.66 0 20 C0 13.4 0 6.8 0 0 Z " fill="#1B6386" transform="translate(294,299)"/>
<path d="M0 0 C1.65 0.33 3.3 0.66 5 1 C6.28317892 4.84953676 6.06643637 7.94738135 6 12 C4.35 11.67 2.7 11.34 1 11 C1 10.01 1 9.02 1 8 C-0.65 7.67 -2.3 7.34 -4 7 C-4 6.01 -4 5.02 -4 4 C-3.34 4 -2.68 4 -2 4 C-2 3.34 -2 2.68 -2 2 C-1.34 2 -0.68 2 0 2 C0 1.34 0 0.68 0 0 Z " fill="#1D5591" transform="translate(214,254)"/>
<path d="M0 0 C0.99 0.33 1.98 0.66 3 1 C3.33 1.99 3.66 2.98 4 4 C5.98 3.34 7.96 2.68 10 2 C10.33 2.99 10.66 3.98 11 5 C9.35 5.33 7.7 5.66 6 6 C5.67 6.99 5.34 7.98 5 9 C1.52674819 10.1577506 -1.36067448 10.06866652 -5 10 C-3.35 6.7 -1.7 3.4 0 0 Z " fill="#1F307E" transform="translate(194,283)"/>
<path d="M0 0 C0.33 0 0.66 0 1 0 C1.66 7.59 2.32 15.18 3 23 C9.2276592 23.28938792 9.2276592 23.28938792 14 21 C14 22.32 14 23.64 14 25 C7.81311004 27.27273509 7.2283173 27.06523351 0 25 C0 16.75 0 8.5 0 0 Z " fill="#1A4E7D" transform="translate(267,300)"/>
<path d="M0 0 C1.32 0 2.64 0 4 0 C4 1.98 4 3.96 4 6 C5.98 6 7.96 6 10 6 C10 6.33 10 6.66 10 7 C8.02 7 6.04 7 4 7 C4 7.66 4 8.32 4 9 C2.375 10.125 2.375 10.125 0 11 C-3.25 10.125 -3.25 10.125 -6 9 C-6 8.01 -6 7.02 -6 6 C-4.02 5.67 -2.04 5.34 0 5 C0 3.35 0 1.7 0 0 Z " fill="#556693" transform="translate(210,287)"/>
<path d="M0 0 C0.33 0 0.66 0 1 0 C1.02692484 2.29160319 1.04636124 4.58329546 1.0625 6.875 C1.07410156 8.15117187 1.08570313 9.42734375 1.09765625 10.7421875 C1 14 1 14 0 16 C-3.36637397 14.5572683 -5.66502571 12.83532593 -8 10 C-8 8.68 -8 7.36 -8 6 C-6.35 6 -4.7 6 -3 6 C-2.67 6.66 -2.34 7.32 -2 8 C-1.34 5.36 -0.68 2.72 0 0 Z " fill="#38ACAA" transform="translate(311,192)"/>
<path d="M0 0 C0.66 0.33 1.32 0.66 2 1 C1.938125 2.11375 1.87625 3.2275 1.8125 4.375 C1.874375 5.57125 1.93625 6.7675 2 8 C2.99 8.66 3.98 9.32 5 10 C4.67 10.99 4.34 11.98 4 13 C3.67 12.01 3.34 11.02 3 10 C2.37351562 10.01160156 1.74703125 10.02320313 1.1015625 10.03515625 C0.28429687 10.04417969 -0.53296875 10.05320313 -1.375 10.0625 C-2.18710937 10.07410156 -2.99921875 10.08570313 -3.8359375 10.09765625 C-6 10 -6 10 -8 9 C-6.4169423 4.7257442 -3.49431596 2.73468206 0 0 Z " fill="#1DA3A6" transform="translate(285,181)"/>
<path d="M0 0 C3 0 3 0 5 1 C5 5.95 5 10.9 5 16 C3.68 16.33 2.36 16.66 1 17 C-0.75 15.75 -0.75 15.75 -2 14 C-2 13.01 -2 12.02 -2 11 C-1.34 11 -0.68 11 0 11 C0 7.37 0 3.74 0 0 Z " fill="#5D71A2" transform="translate(231,315)"/>
<path d="M0 0 C0.33 0.66 0.66 1.32 1 2 C3.52733235 2.65555119 3.52733235 2.65555119 6 3 C6 3.99 6 4.98 6 6 C7.65 6.33 9.3 6.66 11 7 C6.85714286 13.42857143 6.85714286 13.42857143 4 16 C4.04125 15.278125 4.0825 14.55625 4.125 13.8125 C3.99078695 10.79270631 3.24829381 8.73064271 2 6 C1.01 6.495 1.01 6.495 0 7 C-0.38133299 5.0085944 -0.71325582 3.00720923 -1 1 C-0.67 0.67 -0.34 0.34 0 0 Z " fill="#2B599A" transform="translate(209,259)"/>
<path d="M0 0 C13.45503311 -0.29900074 26.62105281 0.58336127 40 2 C40 2.33 40 2.66 40 3 C31.09 3 22.18 3 13 3 C13 2.67 13 2.34 13 2 C8.71 1.67 4.42 1.34 0 1 C0 0.67 0 0.34 0 0 Z " fill="#DDDDDD" transform="translate(299,348)"/>
<path d="M0 0 C8.91 0 17.82 0 27 0 C26.67 0.99 26.34 1.98 26 3 C17.09 2.67 8.18 2.34 -1 2 C-0.67 1.34 -0.34 0.68 0 0 Z " fill="#C4C4C4" transform="translate(258,348)"/>
<path d="M0 0 C0.33 0 0.66 0 1 0 C1.33 4.29 1.66 8.58 2 13 C2.33 13 2.66 13 3 13 C4.0161692 17.62921525 3.83796731 21.34462607 3 26 C2.67 26 2.34 26 2 26 C1.67 29.3 1.34 32.6 1 36 C0.34 35.67 -0.32 35.34 -1 35 C-0.67 23.45 -0.34 11.9 0 0 Z M1 15 C2 18 2 18 2 18 Z " fill="#545FA5" transform="translate(220,294)"/>
<path d="M0 0 C3 0 6 0 9 0 C9 4.95 9 9.9 9 15 C8.01 15.495 8.01 15.495 7 16 C6.34 15.67 5.68 15.34 5 15 C5 10.38 5 5.76 5 1 C3.35 1 1.7 1 0 1 C0 0.67 0 0.34 0 0 Z " fill="#4D4E88" transform="translate(193,318)"/>
<path d="M0 0 C0 3.96130371 -1.34877125 4.82914401 -4 7.6875 C-4.7425 8.49574219 -5.485 9.30398438 -6.25 10.13671875 C-6.8275 10.75160156 -7.405 11.36648438 -8 12 C-9.32 11.34 -10.64 10.68 -12 10 C-12 9.34 -12 8.68 -12 8 C-12.99 8.33 -13.98 8.66 -15 9 C-14.67 8.01 -14.34 7.02 -14 6 C-8.555 5.505 -8.555 5.505 -3 5 C-2.67 3.68 -2.34 2.36 -2 1 C-1.34 0.67 -0.68 0.34 0 0 Z " fill="#384291" transform="translate(202,287)"/>
<path d="M0 0 C0.99 0 1.98 0 3 0 C3.05402274 2.10388569 3.09280256 4.20816714 3.125 6.3125 C3.14820313 7.48425781 3.17140625 8.65601563 3.1953125 9.86328125 C3 13 3 13 1 16 C-2.625 16.1875 -2.625 16.1875 -6 16 C-6 15.67 -6 15.34 -6 15 C-4.02 15 -2.04 15 0 15 C0 10.05 0 5.1 0 0 Z " fill="#0F5F7D" transform="translate(273,271)"/>
<path d="M0 0 C1.65 0 3.3 0 5 0 C3.68 0.33 2.36 0.66 1 1 C1.33 1.99 1.66 2.98 2 4 C2.66 4.33 3.32 4.66 4 5 C3.75 8.375 3.75 8.375 3 12 C1.0625 13.5 1.0625 13.5 -1 14 C-1.66 13.67 -2.32 13.34 -3 13 C-3 9.04 -3 5.08 -3 1 C-2.67 1 -2.34 1 -2 1 C-2 4.3 -2 7.6 -2 11 C-1.34 11 -0.68 11 0 11 C0 7.37 0 3.74 0 0 Z " fill="#6D719D" transform="translate(213,329)"/>
<path d="M0 0 C1.32 0.33 2.64 0.66 4 1 C4.02712066 2.43739513 4.04645067 3.87493863 4.0625 5.3125 C4.07410156 6.11300781 4.08570313 6.91351563 4.09765625 7.73828125 C4 10 4 10 3 13 C2.01 13 1.02 13 0 13 C0 8.71 0 4.42 0 0 Z " fill="#103D6D" transform="translate(232,267)"/>
<path d="M0 0 C1.98 0.495 1.98 0.495 4 1 C4.8125 3.6875 4.8125 3.6875 5 7 C2.5625 9.875 2.5625 9.875 0 12 C-1.31157516 9.37684968 -0.89649988 7.76966564 -0.5625 4.875 C-0.46066406 3.96492188 -0.35882813 3.05484375 -0.25390625 2.1171875 C-0.17011719 1.41851562 -0.08632812 0.71984375 0 0 Z " fill="#295E93" transform="translate(220,254)"/>
<path d="M0 0 C0.99 0 1.98 0 3 0 C3 0.99 3 1.98 3 3 C3.99 3.33 4.98 3.66 6 4 C5.01 5.485 5.01 5.485 4 7 C0.875 7.1875 0.875 7.1875 -2 7 C-2 7.66 -2 8.32 -2 9 C-2.66 9 -3.32 9 -4 9 C-4 9.66 -4 10.32 -4 11 C-4.66 10.67 -5.32 10.34 -6 10 C-5.07615834 8.32572385 -4.13549431 6.66071997 -3.1875 5 C-2.66542969 4.071875 -2.14335937 3.14375 -1.60546875 2.1875 C-0.81076172 1.1046875 -0.81076172 1.1046875 0 0 Z " fill="#40709A" transform="translate(216,247)"/>
<path d="M0 0 C0.99 0.33 1.98 0.66 3 1 C2.98839844 1.75925781 2.97679687 2.51851563 2.96484375 3.30078125 C2.95582031 4.29464844 2.94679687 5.28851563 2.9375 6.3125 C2.92589844 7.29863281 2.91429687 8.28476562 2.90234375 9.30078125 C2.87670138 12.09963849 2.87670138 12.09963849 4 15 C3.0625 17.6875 3.0625 17.6875 2 20 C0 18 0 18 -0.22705078 16.12060547 C-0.21657715 15.37697754 -0.20610352 14.63334961 -0.1953125 13.8671875 C-0.18886719 13.06152344 -0.18242187 12.25585938 -0.17578125 11.42578125 C-0.15064453 10.16314453 -0.15064453 10.16314453 -0.125 8.875 C-0.11597656 8.02550781 -0.10695312 7.17601562 -0.09765625 6.30078125 C-0.07405647 4.20040116 -0.03818483 2.10016556 0 0 Z " fill="#25377C" transform="translate(204,296)"/>
<path d="M0 0 C0.33 0 0.66 0 1 0 C1.09377123 7.41834582 1.17402193 14.66236293 0 22 C-0.33 22 -0.66 22 -1 22 C-3.92857143 5.89285714 -3.92857143 5.89285714 0 0 Z " fill="#4CC0B6" transform="translate(313,170)"/>
<path d="M0 0 C2.31 0.66 4.62 1.32 7 2 C7.33 4.31 7.66 6.62 8 9 C8.99 9 9.98 9 11 9 C10.67 9.66 10.34 10.32 10 11 C7.03 10.505 7.03 10.505 4 10 C4 7.36 4 4.72 4 2 C3.01 2 2.02 2 1 2 C1 4.31 1 6.62 1 9 C0.67 9 0.34 9 0 9 C0 6.03 0 3.06 0 0 Z " fill="#6B6EB0" transform="translate(189,308)"/>
<path d="M0 0 C-0.33 0.99 -0.66 1.98 -1 3 C-7.6 3 -14.2 3 -21 3 C-20.67 2.34 -20.34 1.68 -20 1 C-17.55325793 0.68371383 -15.20733509 0.48606599 -12.75 0.375 C-12.08097656 0.33632813 -11.41195312 0.29765625 -10.72265625 0.2578125 C-7.14566672 0.06104294 -3.58201335 -0.04165132 0 0 Z " fill="#E0DDDF" transform="translate(179,348)"/>
<path d="M0 0 C0.33 0 0.66 0 1 0 C1 3.3 1 6.6 1 10 C1.99 10 2.98 10 4 10 C4 6.7 4 3.4 4 0 C6 2 6 2 6.1953125 4.3828125 C6.17210937 5.28773438 6.14890625 6.19265625 6.125 7.125 C6.10695312 8.03507812 6.08890625 8.94515625 6.0703125 9.8828125 C6.04710937 10.58148438 6.02390625 11.28015625 6 12 C3.69 12.33 1.38 12.66 -1 13 C-0.67 8.71 -0.34 4.42 0 0 Z " fill="#848BBA" transform="translate(189,335)"/>
<path d="M0 0 C0.33 0.66 0.66 1.32 1 2 C1.66 2 2.32 2 3 2 C1.22054913 6.04420651 -1.39529673 9.46078487 -4 13 C-5.26041675 10.4791665 -4.66225891 9.64903564 -4 7 C-4.33 6.34 -4.66 5.68 -5 5 C-4.34 5 -3.68 5 -3 5 C-2.5359375 4.0409375 -2.5359375 4.0409375 -2.0625 3.0625 C-1 1 -1 1 0 0 Z " fill="#4596AA" transform="translate(271,235)"/>
<path d="M0 0 C1.32 0 2.64 0 4 0 C3.67 4.62 3.34 9.24 3 14 C2.01 13.67 1.02 13.34 0 13 C0 8.71 0 4.42 0 0 Z " fill="#0B2968" transform="translate(252,325)"/>
<path d="M0 0 C0.763125 0.20625 1.52625 0.4125 2.3125 0.625 C2.10625 1.223125 1.9 1.82125 1.6875 2.4375 C1.00578085 4.90950846 1.00578085 4.90950846 3.3125 7.625 C-1.1425 6.635 -1.1425 6.635 -5.6875 5.625 C-5.6875 4.305 -5.6875 2.985 -5.6875 1.625 C-2.6875 -0.375 -2.6875 -0.375 0 0 Z " fill="#1B6F96" transform="translate(243.6875,232.375)"/>
<path d="M0 0 C0.66 0.99 1.32 1.98 2 3 C2.99 3.33 3.98 3.66 5 4 C4.67 4.66 4.34 5.32 4 6 C1.93359375 6.4140625 1.93359375 6.4140625 -0.5625 6.625 C-1.38878906 6.69976562 -2.21507812 6.77453125 -3.06640625 6.8515625 C-4.02353516 6.92503906 -4.02353516 6.92503906 -5 7 C-5 5.68 -5 4.36 -5 3 C-2.5 1.25 -2.5 1.25 0 0 Z " fill="#168DA7" transform="translate(273,224)"/>
<path d="M0 0 C0.66 0.99 1.32 1.98 2 3 C0.38247153 5.17262127 -1.24338637 7.33799958 -2.875 9.5 C-3.33519531 10.12003906 -3.79539062 10.74007813 -4.26953125 11.37890625 C-5.46562174 12.95635892 -6.72856726 14.48261798 -8 16 C-8.66 16 -9.32 16 -10 16 C-10.33 15.01 -10.66 14.02 -11 13 C-10.01 12.67 -9.02 12.34 -8 12 C-6.29144978 8.99992729 -6.29144978 8.99992729 -5 6 C-4.01 6 -3.02 6 -2 6 C-2 5.01 -2 4.02 -2 3 C-1.34 3 -0.68 3 0 3 C0 2.01 0 1.02 0 0 Z " fill="#32738E" transform="translate(264,246)"/>
<path d="M0 0 C0.66 0.33 1.32 0.66 2 1 C0.23867546 5.00301032 -2.26132483 8.6028977 -5 12 C-5.33 12 -5.66 12 -6 12 C-6 8.37 -6 4.74 -6 1 C-5.01 2.32 -4.02 3.64 -3 5 C-2.01 3.35 -1.02 1.7 0 0 Z " fill="#4BA7B3" transform="translate(286,217)"/>
<path d="M0 0 C2.97 0.495 2.97 0.495 6 1 C5 4 5 4 3 5 C2.7834375 6.175625 2.7834375 6.175625 2.5625 7.375 C1.93399969 10.30800143 1.15187696 11.03748822 -1 13 C-1.02696365 11.20841511 -1.04637917 9.41671527 -1.0625 7.625 C-1.07410156 6.62726563 -1.08570313 5.62953125 -1.09765625 4.6015625 C-1 2 -1 2 0 0 Z " fill="#294675" transform="translate(256,325)"/>
<path d="M0 0 C0.66 0.66 1.32 1.32 2 2 C1.71730916 5.9576718 -0.63783164 8.94307624 -3 12 C-3.99 12 -4.98 12 -6 12 C-5.36934243 8.78147169 -4.21979305 6.49198931 -2.4375 3.75 C-1.98246094 3.04359375 -1.52742187 2.3371875 -1.05859375 1.609375 C-0.53458984 0.81273437 -0.53458984 0.81273437 0 0 Z " fill="#151760" transform="translate(178,311)"/>
<path d="M0 0 C0.33 0 0.66 0 1 0 C1 1.65 1 3.3 1 5 C1.37125 4.175 1.7425 3.35 2.125 2.5 C2.74375 1.675 3.3625 0.85 4 0 C7.1875 -0.3125 7.1875 -0.3125 10 0 C8.625 2 8.625 2 7 4 C6.34 4 5.68 4 5 4 C4.67 4.99 4.34 5.98 4 7 C2.68 6.67 1.36 6.34 0 6 C0 4.02 0 2.04 0 0 Z " fill="#437198" transform="translate(272,327)"/>
<path d="M0 0 C0.33 0 0.66 0 1 0 C1 2.64 1 5.28 1 8 C2.32 7.67 3.64 7.34 5 7 C5 7.66 5 8.32 5 9 C1.52674819 10.1577506 -1.36067448 10.06866652 -5 10 C-3.35 6.7 -1.7 3.4 0 0 Z " fill="#2D3A7D" transform="translate(194,283)"/>
<path d="M0 0 C1.65 0 3.3 0 5 0 C5 4.29 5 8.58 5 13 C4.67 13 4.34 13 4 13 C4 10.03 4 7.06 4 4 C2.35 4 0.7 4 -1 4 C-0.67 2.68 -0.34 1.36 0 0 Z " fill="#6D7A9C" transform="translate(247,325)"/>
<path d="M0 0 C0.66 1.32 1.32 2.64 2 4 C3.84188612 6.05270463 3.84188612 6.05270463 6 7 C6.33 6.01 6.66 5.02 7 4 C9 7 9 7 9 9 C5.7 9 2.4 9 -1 9 C-0.67 6.03 -0.34 3.06 0 0 Z " fill="#173B7A" transform="translate(246,317)"/>
<path d="M0 0 C0 3.16611388 -0.46280377 4.17751295 -1.9375 6.875 C-3.52462768 9.91465797 -4.57002529 12.56020233 -5 16 C-5.66 16 -6.32 16 -7 16 C-7 15.01 -7 14.02 -7 13 C-7.99 13.495 -7.99 13.495 -9 14 C-7.45158425 10.65291949 -5.50894136 7.75332488 -3.375 4.75 C-2.74335938 3.85796875 -2.11171875 2.9659375 -1.4609375 2.046875 C-0.73777344 1.03367188 -0.73777344 1.03367188 0 0 Z " fill="#70B0C2" transform="translate(266,222)"/>
<path d="M0 0 C1 3 1 3 0 5.6875 C-2 8 -2 8 -5.6875 8.3125 C-6.780625 8.209375 -7.87375 8.10625 -9 8 C-6.14723863 5.06799526 -3.34920216 2.35684596 0 0 Z " fill="#48BBB3" transform="translate(296,173)"/>
<path d="M0 0 C0.99 0.495 0.99 0.495 2 1 C2 2.98 2 4.96 2 7 C3.65 7 5.3 7 7 7 C6.01 7.495 6.01 7.495 5 8 C5 8.99 5 9.98 5 11 C3.0625 10.625 3.0625 10.625 1 10 C-0.60725635 6.78548731 -0.05748185 3.56387464 0 0 Z " fill="#0C1A5E" transform="translate(225,306)"/>
<path d="M0 0 C2 2 2 2 2.1953125 5.2578125 C2.17210937 6.53398437 2.14890625 7.81015625 2.125 9.125 C2.10695313 10.40632813 2.08890625 11.68765625 2.0703125 13.0078125 C2.04710937 13.99523437 2.02390625 14.98265625 2 16 C1.34 16 0.68 16 0 16 C-0.71033431 10.47032059 -1.30267176 5.50016964 0 0 Z " fill="#0B7889" transform="translate(315,279)"/>
<path d="M0 0 C1.31625194 2.63250388 0.74813658 3.80179056 0.0625 6.625 C-0.13214844 7.44226563 -0.32679688 8.25953125 -0.52734375 9.1015625 C-0.76130859 10.04128906 -0.76130859 10.04128906 -1 11 C-1.66 11 -2.32 11 -3 11 C-3 10.34 -3 9.68 -3 9 C-3.66 9 -4.32 9 -5 9 C-5 9.66 -5 10.32 -5 11 C-5.66 10.67 -6.32 10.34 -7 10 C-3.535 5.05 -3.535 5.05 0 0 Z " fill="#177D93" transform="translate(269,220)"/>
<path d="M0 0 C0.33 0.99 0.66 1.98 1 3 C0.01 4.485 0.01 4.485 -1 6 C0.32 6.66 1.64 7.32 3 8 C-3.75 8.125 -3.75 8.125 -6 7 C-4.60667426 3.63279613 -3.0210714 2.0140476 0 0 Z " fill="#54B6B7" transform="translate(283,183)"/>
<path d="M0 0 C2.33944736 0.28730055 4.6739143 0.61936779 7 1 C7.33 1.99 7.66 2.98 8 4 C5.36 3.67 2.72 3.34 0 3 C0 5.64 0 8.28 0 11 C-0.33 11 -0.66 11 -1 11 C-1.02688151 9.35425434 -1.04634123 7.70838587 -1.0625 6.0625 C-1.07410156 5.14597656 -1.08570313 4.22945313 -1.09765625 3.28515625 C-1 1 -1 1 0 0 Z " fill="#0F2664" transform="translate(234,312)"/>
<path d="M0 0 C0.99 0.99 1.98 1.98 3 3 C2.195625 3.226875 1.39125 3.45375 0.5625 3.6875 C-0.283125 4.120625 -1.12875 4.55375 -2 5 C-2.89386164 7.54775306 -2.89386164 7.54775306 -3 10 C-4.32 10.33 -5.64 10.66 -7 11 C-4.84921278 7.14341602 -2.76544722 3.45680903 0 0 Z " fill="#329AA7" transform="translate(281,201)"/>
<path d="M0 0 C0.33 0.99 0.66 1.98 1 3 C0.01 3.495 0.01 3.495 -1 4 C-0.34 4.66 0.32 5.32 1 6 C1.66 5.67 2.32 5.34 3 5 C2.34 6.32 1.68 7.64 1 9 C-0.32 9 -1.64 9 -3 9 C-3.33 6.69 -3.66 4.38 -4 2 C-2.68 1.34 -1.36 0.68 0 0 Z " fill="#3E5AA0" transform="translate(204,277)"/>
<path d="M0 0 C1.32 0 2.64 0 4 0 C4 0.66 4 1.32 4 2 C3.34 2 2.68 2 2 2 C1.67 6.29 1.34 10.58 1 15 C0.67 15 0.34 15 0 15 C0 10.05 0 5.1 0 0 Z " fill="#7FC7C7" transform="translate(293,223)"/>
<path d="M0 0 C0.928125 0.515625 1.85625 1.03125 2.8125 1.5625 C2.8125 1.8925 2.8125 2.2225 2.8125 2.5625 C-1.1475 2.5625 -5.1075 2.5625 -9.1875 2.5625 C-8.1975 2.2325 -7.2075 1.9025 -6.1875 1.5625 C-6.1875 0.9025 -6.1875 0.2425 -6.1875 -0.4375 C-3.1875 -1.4375 -3.1875 -1.4375 0 0 Z " fill="#CDCCCF" transform="translate(205.1875,348.4375)"/>
<path d="M0 0 C1.32 0.33 2.64 0.66 4 1 C3.34 1.66 2.68 2.32 2 3 C1.75746187 5.21072977 1.75746187 5.21072977 1.875 7.625 C1.89304688 8.44226563 1.91109375 9.25953125 1.9296875 10.1015625 C1.95289063 10.72804688 1.97609375 11.35453125 2 12 C1.01 12.495 1.01 12.495 0 13 C0 8.71 0 4.42 0 0 Z " fill="#6E6EA8" transform="translate(236,316)"/>
<path d="M0 0 C0.33 1.32 0.66 2.64 1 4 C-5.4 6.21538462 -5.4 6.21538462 -8.4375 5.125 C-8.953125 4.75375 -9.46875 4.3825 -10 4 C-10 3.34 -10 2.68 -10 2 C-8.3603125 2.061875 -8.3603125 2.061875 -6.6875 2.125 C-2.91107771 2.32074666 -2.91107771 2.32074666 0 0 Z " fill="#1E518F" transform="translate(280,321)"/>
<path d="M0 0 C0.66 0 1.32 0 2 0 C2.33 2.97 2.66 5.94 3 9 C0.525 8.01 0.525 8.01 -2 7 C-1.125 2.25 -1.125 2.25 0 0 Z " fill="#254883" transform="translate(207,262)"/>
<path d="M0 0 C0.33 2.31 0.66 4.62 1 7 C0.21625 6.649375 -0.5675 6.29875 -1.375 5.9375 C-2.24125 5.628125 -3.1075 5.31875 -4 5 C-4.99 5.495 -4.99 5.495 -6 6 C-5.625 3.5625 -5.625 3.5625 -5 1 C-3 0 -3 0 0 0 Z " fill="#4987A4" transform="translate(240,243)"/>
<path d="M0 0 C0.99 0.33 1.98 0.66 3 1 C3 1.99 3 2.98 3 4 C1.35 4.33 -0.3 4.66 -2 5 C-2 5.99 -2 6.98 -2 8 C-2.66 8 -3.32 8 -4 8 C-3.67 6.35 -3.34 4.7 -3 3 C-2.34 3 -1.68 3 -1 3 C-0.67 2.01 -0.34 1.02 0 0 Z " fill="#1A1B61" transform="translate(198,333)"/>
<path d="M0 0 C0.66 1.32 1.32 2.64 2 4 C0.35 5.98 -1.3 7.96 -3 10 C-3.99928333 7.301935 -4.03624754 6.11989571 -3.1875 3.3125 C-2 1 -2 1 0 0 Z " fill="#3FACA8" transform="translate(299,198)"/>
<path d="M0 0 C0.99 0.33 1.98 0.66 3 1 C2.67 2.32 2.34 3.64 2 5 C1.34 5 0.68 5 0 5 C0 5.99 0 6.98 0 8 C-1.32 7.67 -2.64 7.34 -4 7 C-2.68 4.69 -1.36 2.38 0 0 Z " fill="#36528D" transform="translate(204,267)"/>
<path d="M0 0 C0.99 0 1.98 0 3 0 C3 2.64 3 5.28 3 8 C2.01 8 1.02 8 0 8 C0 5.36 0 2.72 0 0 Z " fill="#080953" transform="translate(190,310)"/>
<path d="M0 0 C0.66 0 1.32 0 2 0 C2 0.66 2 1.32 2 2 C2.99 2.33 3.98 2.66 5 3 C3.35 4.65 1.7 6.3 0 8 C-0.79953138 4.71303767 -1.09658936 3.28976808 0 0 Z " fill="#3A5594" transform="translate(207,274)"/>
<path d="M0 0 C0 0.99 0 1.98 0 3 C-0.66 3 -1.32 3 -2 3 C-2 4.65 -2 6.3 -2 8 C-2.99 8 -3.98 8 -5 8 C-5.33 7.01 -5.66 6.02 -6 5 C-4.21653709 1.96811304 -3.40424844 1.13474948 0 0 Z " fill="#1B849A" transform="translate(277,229)"/>
<path d="M0 0 C2.31 0.66 4.62 1.32 7 2 C6.67 2.99 6.34 3.98 6 5 C4.35 4.01 2.7 3.02 1 2 C0.67 2.99 0.34 3.98 0 5 C-0.66 4.67 -1.32 4.34 -2 4 C-1.34 2.68 -0.68 1.36 0 0 Z " fill="#1C5194" transform="translate(253,317)"/>
<path d="M0 0 C0.66 0 1.32 0 2 0 C1.84518205 2.70931419 1.51827919 4.46584039 -0.40234375 6.4453125 C-1.89771708 7.67679642 -3.4462924 8.8429837 -5 10 C-3.66749209 6.4124787 -2.169283 3.1635377 0 0 Z " fill="#666C9D" transform="translate(184,299)"/>
<path d="M0 0 C2.64 0 5.28 0 8 0 C7.01 0.495 7.01 0.495 6 1 C6 1.66 6 2.32 6 3 C4.68 2.34 3.36 1.68 2 1 C2.33 2.65 2.66 4.3 3 6 C2.01 5.67 1.02 5.34 0 5 C0 3.35 0 1.7 0 0 Z " fill="#50AFB8" transform="translate(317,263)"/>
<path d="M0 0 C-1.32 1.32 -2.64 2.64 -4 4 C-5.98 3.01 -7.96 2.02 -10 1 C-10 0.67 -10 0.34 -10 0 C-6.33694766 -0.74926071 -3.57644848 -1.2380014 0 0 Z " fill="#DCDADD" transform="translate(213,347)"/>
<path d="M0 0 C0.66 0.33 1.32 0.66 2 1 C0.125 5.75 0.125 5.75 -1 8 C-2.65 7.01 -4.3 6.02 -6 5 C-5.67 4.01 -5.34 3.02 -5 2 C-4.67 2.66 -4.34 3.32 -4 4 C-2.68 2.68 -1.36 1.36 0 0 Z " fill="#07158D" transform="translate(192,301)"/>
<path d="M0 0 C0 3.58912412 -0.66436554 4.10857029 -3 6.6875 C-3.556875 7.31011719 -4.11375 7.93273437 -4.6875 8.57421875 C-5.120625 9.04472656 -5.55375 9.51523437 -6 10 C-6.33 8.68 -6.66 7.36 -7 6 C-5.68 5.67 -4.36 5.34 -3 5 C-2.814375 4.0409375 -2.814375 4.0409375 -2.625 3.0625 C-2.41875 2.381875 -2.2125 1.70125 -2 1 C-1.34 0.67 -0.68 0.34 0 0 Z " fill="#6176A4" transform="translate(202,287)"/>
<path d="M0 0 C0.33 0 0.66 0 1 0 C1.08096803 1.45742463 1.13917774 2.91612807 1.1875 4.375 C1.22230469 5.18710937 1.25710937 5.99921875 1.29296875 6.8359375 C1.19628906 7.55007813 1.09960938 8.26421875 1 9 C0.01 9.66 -0.98 10.32 -2 11 C-2 8.03 -2 5.06 -2 2 C-1.34 2 -0.68 2 0 2 C0 1.34 0 0.68 0 0 Z " fill="#4A66A7" transform="translate(235,268)"/>
<path d="M0 0 C1.32 0.33 2.64 0.66 4 1 C3.67 3.31 3.34 5.62 3 8 C0.37613513 4.93882432 0 4.26826873 0 0 Z " fill="#073EA5" transform="translate(295,310)"/>
<path d="M0 0 C0.99 0.33 1.98 0.66 3 1 C2.02471263 2.33617352 1.04466681 3.6688751 0.0625 5 C-0.48277344 5.7425 -1.02804688 6.485 -1.58984375 7.25 C-2.28787109 8.11625 -2.28787109 8.11625 -3 9 C-3.33 9 -3.66 9 -4 9 C-4.25 6.75 -4.25 6.75 -4 4 C-2 1.6875 -2 1.6875 0 0 Z " fill="#446593" transform="translate(217,266)"/>
<path d="M0 0 C0.66 0.33 1.32 0.66 2 1 C0.02 3.97 0.02 3.97 -2 7 C-2.66 6.67 -3.32 6.34 -4 6 C-4 5.01 -4 4.02 -4 3 C-2 1.3125 -2 1.3125 0 0 Z " fill="#40BAB2" transform="translate(305,166)"/>
<path d="M0 0 C0.66 1.32 1.32 2.64 2 4 C1.01 4.33 0.02 4.66 -1 5 C-2.66710346 6.49985609 -2.66710346 6.49985609 -4 8 C-4 4.09161134 -2.49432124 2.88405893 0 0 Z " fill="#5959AC" transform="translate(180,315)"/>
<path d="M0 0 C0 0.99 0 1.98 0 3 C-1.98 3.99 -3.96 4.98 -6 6 C-6.33 4.68 -6.66 3.36 -7 2 C-2.25 0 -2.25 0 0 0 Z " fill="#4346A8" transform="translate(186,309)"/>
<path d="M0 0 C0.99 0.33 1.98 0.66 3 1 C0.03 4.96 0.03 4.96 -3 9 C-3.33 7.68 -3.66 6.36 -4 5 C-2.68 4.34 -1.36 3.68 0 3 C0 2.01 0 1.02 0 0 Z " fill="#597C9B" transform="translate(230,250)"/>
<path d="M0 0 C3 1 3 1 4.1875 3.0625 C4.455625 3.701875 4.72375 4.34125 5 5 C3.35 5.66 1.7 6.32 0 7 C0.33 5.68 0.66 4.36 1 3 C0.34 2.67 -0.32 2.34 -1 2 C-0.67 1.34 -0.34 0.68 0 0 Z " fill="#367AA4" transform="translate(226,231)"/>
<path d="M0 0 C1.65 0.33 3.3 0.66 5 1 C4.67 3.64 4.34 6.28 4 9 C3.67 9 3.34 9 3 9 C3 6.69 3 4.38 3 2 C1.35 2.33 -0.3 2.66 -2 3 C-1.34 2.01 -0.68 1.02 0 0 Z " fill="#6FBCBC" transform="translate(311,161)"/>
<path d="M0 0 C0.33 1.32 0.66 2.64 1 4 C-0.32 4.99 -1.64 5.98 -3 7 C-4.32 6.34 -5.64 5.68 -7 5 C-5.5459375 4.5978125 -5.5459375 4.5978125 -4.0625 4.1875 C-3.051875 3.795625 -2.04125 3.40375 -1 3 C-0.67 2.01 -0.34 1.02 0 0 Z " fill="#282795" transform="translate(196,326)"/>
<path d="M0 0 C0.66 0 1.32 0 2 0 C2.33 2.64 2.66 5.28 3 8 C2.01 8 1.02 8 0 8 C0 5.36 0 2.72 0 0 Z " fill="#145A82" transform="translate(294,311)"/>
<path d="M0 0 C3.36591866 1.44253657 5.51047079 3.33264727 8 6 C4.06830895 6 2.83572772 4.60580385 0 2 C0 1.34 0 0.68 0 0 Z " fill="#235B7F" transform="translate(241,249)"/>
<path d="M0 0 C1.98 0 3.96 0 6 0 C4.625 2 4.625 2 3 4 C2.34 4 1.68 4 1 4 C0.67 4.66 0.34 5.32 0 6 C0 4.02 0 2.04 0 0 Z " fill="#92B3C7" transform="translate(276,327)"/>
<path d="M0 0 C0.66 0.33 1.32 0.66 2 1 C1.67 2.65 1.34 4.3 1 6 C-0.32 6 -1.64 6 -3 6 C-1.125 1.125 -1.125 1.125 0 0 Z " fill="#161A70" transform="translate(182,305)"/>
<path d="M0 0 C0.99 0.33 1.98 0.66 3 1 C2.67 2.98 2.34 4.96 2 7 C1.34 7 0.68 7 0 7 C0 4.69 0 2.38 0 0 Z " fill="#075A95" transform="translate(295,303)"/>
<path d="M0 0 C0.66 0 1.32 0 2 0 C2 0.66 2 1.32 2 2 C1.01 1.67 0.02 1.34 -1 1 C-0.67 0.67 -0.34 0.34 0 0 Z " fill="#333376" transform="translate(186,336)"/>
<path d="" fill="#000000" transform="translate(0,0)"/>
<path d="" fill="#000000" transform="translate(0,0)"/>
<path d="" fill="#000000" transform="translate(0,0)"/>
<path d="" fill="#000000" transform="translate(0,0)"/>
<path d="" fill="#000000" transform="translate(0,0)"/>
<path d="" fill="#00FFFF" transform="translate(0,0)"/>
<path d="" fill="#FFFFFF" transform="translate(0,0)"/>
<path d="" fill="#000000" transform="translate(0,0)"/>
<path d="" fill="#000000" transform="translate(0,0)"/>
</svg>
