<svg width="200" height="200" viewBox="0 0 200 200" fill="none" xmlns="http://www.w3.org/2000/svg">
  <rect width="200" height="200" rx="20" fill="url(#grad3)"/>
  <defs>
    <linearGradient id="grad3" x1="0%" y1="0%" x2="100%" y2="100%">
      <stop offset="0%" style="stop-color:#3772ff;stop-opacity:1" />
      <stop offset="100%" style="stop-color:#2980b9;stop-opacity:1" />
    </linearGradient>
  </defs>
  <rect x="60" y="40" width="80" height="60" rx="8" fill="white" opacity="0.9"/>
  <rect x="70" y="50" width="60" height="8" rx="4" fill="#3772ff" opacity="0.8"/>
  <rect x="70" y="65" width="40" height="4" rx="2" fill="#3772ff" opacity="0.6"/>
  <rect x="70" y="75" width="50" height="4" rx="2" fill="#3772ff" opacity="0.5"/>
  <rect x="70" y="85" width="35" height="4" rx="2" fill="#3772ff" opacity="0.7"/>
  <rect x="30" y="120" width="140" height="60" rx="8" fill="white" opacity="0.1"/>
  <path d="M50 140 L70 150 L90 135 L110 145 L130 130 L150 140 L170 125" stroke="white" stroke-width="2" fill="none" opacity="0.8"/>
  <circle cx="50" cy="140" r="2" fill="white"/>
  <circle cx="90" cy="135" r="2" fill="white"/>
  <circle cx="130" cy="130" r="2" fill="white"/>
  <circle cx="170" cy="125" r="2" fill="white"/>
</svg>
